<svg id="Layer_1" data-name="Layer 1" xmlns="http://www.w3.org/2000/svg" viewBox="0 0 200.3 125.25"><defs><style>.cls-1{fill:#ff9b2b;}.cls-2{fill:#fff;}.cls-3{fill:#ff9800;}</style></defs><path id="path604" class="cls-1" d="M415.11,232c-2.8-1.45-4.44-5.42-7.71-5.69-3.08-.25-5,3.26-7.65,3-4.18-.49-6.86-4.42-11.9-2.89-5.92,1.81-11.25,9.59-16,13.4-1.86,1.49-4.73,3.25-5,5.85-.34,2.86,3.45,6.9,5.29,8.8,3.39,3.53,11.84,1.87,16.37,1.87,15,0,30,1.19,45,1.19,6.09,0,18.86-3,19,5.33l10.67.43L471.4,267c1.31,7.24,8.47,13.71,14.17,17.84,17.14,12.4,42.46,13.89,59.91.91a53.57,53.57,0,0,0,21.07-50.5c-.73-5.46-4.35-10.39-5.07-15.66-5.09-4.88-8.41-11-14.28-15.21-17.27-12.5-41.94-13.84-59.8-1.52a53.37,53.37,0,0,0-12.69,12.58c-2.38,3.26-4.44,7.89-8.65,9.16-3.63,1.09-6.39-2.91-10-2.35-2.65.41-2,3.71-4.27,4.69-1.27.55-8.93,3.15-9.89,2.88-1.9-.52-2.59-3-4.85-2.8-3,.22-3.94,3.92-6.6,4.57-2.4.58-4.12-2.83-5.84-3.94C420.63,225.07,416.87,228.64,415.11,232Z" transform="translate(-366.76 -194.24)"/><path id="path605" class="cls-2" d="M469.81,226.13c6.72-3.49,10.43-11.54,16-16.55,10.28-9.23,25.75-12.49,39.12-9.94a51.08,51.08,0,0,1,16.56,6.76c37.14,22.28,20.89,80.79-20.71,84.81-13,1.26-25.81-2.48-35.56-11.26-5.52-5-10-15.09-17.78-16.49,5.64,4.11,8.42,10.38,13.14,15.38,5.25,5.56,11.85,9,18.86,11.7,7.64,2.94,15.67,3.43,23.71,2.52,7.13-.81,14.22-3.9,20.15-7.87a46.73,46.73,0,0,0,13.19-14A48.63,48.63,0,0,0,555,216.11c-14.72-19.94-46.64-26.11-66.81-10.72-7.12,5.44-14.58,12.49-18.42,20.74M538,233.51c-15.8,3-11.15,27.21,4.74,24.42S553.52,230.53,538,233.51Z" transform="translate(-366.76 -194.24)"/><path class="cls-3" d="M436.33,305.51h4.32c3.05,0,5.31,1.06,5.31,4.23s-2.27,4.45-5.22,4.45h-2v5.05h-2.44Zm4.21,6.73c2,0,3-.81,3-2.5s-1.07-2.28-3.11-2.28h-1.68v4.78Z" transform="translate(-366.76 -194.24)"/><path class="cls-3" d="M449.09,316.47c0-2.21,1.83-3.36,6.06-3.81,0-1.11-.48-2-1.87-2a5.68,5.68,0,0,0-2.9,1l-.89-1.61a8,8,0,0,1,4.24-1.36c2.57,0,3.84,1.59,3.84,4.46v6.11h-2l-.19-1.14h-.06a5,5,0,0,1-3.2,1.39A2.88,2.88,0,0,1,449.09,316.47Zm6.06,0v-2.32c-2.79.35-3.73,1.08-3.73,2.12s.63,1.31,1.49,1.31A3.25,3.25,0,0,0,455.15,316.48Z" transform="translate(-366.76 -194.24)"/><path class="cls-3" d="M461.55,318.06l1.13-1.54a4.58,4.58,0,0,0,2.85,1.15c1.12,0,1.65-.53,1.65-1.23,0-.87-1.12-1.26-2.22-1.68-1.35-.5-2.89-1.28-2.89-3s1.44-3.09,3.75-3.09a5.57,5.57,0,0,1,3.43,1.24l-1.11,1.49a3.85,3.85,0,0,0-2.26-.9c-1,0-1.53.49-1.53,1.14,0,.81,1,1.12,2.16,1.54,1.39.52,3,1.19,3,3.11,0,1.77-1.41,3.2-4,3.2A6.47,6.47,0,0,1,461.55,318.06Z" transform="translate(-366.76 -194.24)"/><path class="cls-3" d="M472.71,318.06l1.12-1.54a4.58,4.58,0,0,0,2.85,1.15c1.12,0,1.65-.53,1.65-1.23,0-.87-1.11-1.26-2.21-1.68-1.36-.5-2.9-1.28-2.9-3s1.44-3.09,3.75-3.09a5.57,5.57,0,0,1,3.43,1.24l-1.11,1.49a3.85,3.85,0,0,0-2.26-.9c-1,0-1.53.49-1.53,1.14,0,.81,1,1.12,2.16,1.54,1.39.52,3,1.19,3,3.11,0,1.77-1.41,3.2-4,3.2A6.42,6.42,0,0,1,472.71,318.06Z" transform="translate(-366.76 -194.24)"/><path class="cls-3" d="M484.44,313.07h5v1.76h-5Z" transform="translate(-366.76 -194.24)"/><path class="cls-3" d="M493.68,305.75a1.5,1.5,0,0,1,3,0,1.5,1.5,0,0,1-3,0Zm.27,3.18h2.42v10.31H494Z" transform="translate(-366.76 -194.24)"/><path class="cls-3" d="M501.55,308.93h2l.18,1.39h.07a4.8,4.8,0,0,1,3.38-1.65c2.21,0,3.18,1.5,3.18,4.1v6.47h-2.42v-6.16c0-1.69-.49-2.33-1.6-2.33A3.25,3.25,0,0,0,504,312v7.21h-2.42Z" transform="translate(-366.76 -194.24)"/></svg>